# xmcd
#
# Track frame offsets:
#	183
#	19575
#	38315
#	60503
#	79610
#	94873
#	111778
#	129625
#	151828
#	167040
#
# Disc length: 2485 seconds
#
# Revision: 4
# Processed by: cddbd v1.5.1PL0 Copyright (c) Steve Scherf et al.
# Submitted via: dBpowerAMP V4.0
#
DISCID=6909b30a
DTITLE=SimplyRed,Manchester,England - MenAndWomen;Elektra60727-2
DYEAR=1987
DGENRE=Rock - Pop
TTITLE0=RightThing,The(MickBucknall;1987,SimplyRed,Manchester,England)
TTITLE1=Infidelity(MickBucknall,LamontDozier;1987,SimplyRed,Manchester,England)
TTITLE2=Suffer(MickBucknall,LamontDozier;1987,SimplyRed,Manchester,England)
TTITLE3=IWon'tFeelBad(MickBucknall;1987,SimplyRed,Manchester,England)
TTITLE4=Ev'ryTimeWeSayGoodbye(ColePorter,Peru,IN;1987,SimplyRed,Manchester,England)
TTITLE5=LetMeHaveItAllSylvesterStewart;1987,SimplyRed,Manchester,England)
TTITLE6=LoveFire(BunnyWailer;1987,SimplyRed,Manchester,England)
TTITLE7=MoveOnOut(MickBucknall;1987,SimplyRed,Manchester,England)
TTITLE8=Shine(MickBucknall;1987,SimplyRed,Manchester,England)
TTITLE9=MaybeSomeday(MickBucknall;1987,SimplyRed,Manchester,England)
EXTD=more info\nMillenniumMusicProjectFormat, syntax as follows:\nTitle{Subtitle}[info](Lyricist;Composer;Date,Artist,Location)[info]\ncorrections to: windking3@yahoo.com
EXTT0=
EXTT1=
EXTT2=
EXTT3=
EXTT4=
EXTT5=
EXTT6=
EXTT7=
EXTT8=
EXTT9=
PLAYORDER=
